<svg width="65" height="61" viewBox="0 0 65 61" fill="none" xmlns="http://www.w3.org/2000/svg">
<path d="M45.593 5.00755C45.4986 4.85656 45.3947 4.70783 45.2719 4.58288C44.9036 4.2054 44.3981 3.96457 43.8269 3.96457L43.8125 4.45529C44.2519 4.467 44.6297 4.65121 44.913 4.92715C45.2013 5.2246 45.3618 5.61379 45.3618 6.04789H45.7963L45.8673 6.05959L46.2923 6.0713C46.3018 5.93427 46.3256 5.79762 46.349 5.67003L46.3585 5.65833H46.349C46.4295 5.38466 46.5757 5.1559 46.774 4.95999C47.0574 4.67461 47.4495 4.51418 47.884 4.51418L47.8983 4.02119C47.3362 4.00949 46.8073 4.23824 46.4155 4.60629C46.3022 4.71953 46.1888 4.85656 46.0944 5.01699C46.0755 4.83542 46.0755 4.66291 46.1087 4.49078C46.1749 4.10159 46.397 3.73355 46.7604 3.48328L46.4627 3.07031C46.0045 3.39117 45.7071 3.88416 45.6127 4.39867C45.5692 4.60629 45.5692 4.81164 45.593 5.00755Z" fill="#BEC230"/>
<path d="M40.345 3.57908C40.2506 3.47754 40.1372 3.38543 40.0239 3.3054C39.5845 2.99625 39.0367 2.84752 38.4844 2.93962L38.5554 3.44205C38.9899 3.37373 39.4009 3.46583 39.736 3.70629C40.0666 3.94712 40.2982 4.29139 40.3643 4.72549L40.7564 4.65717L41.2476 4.58884C41.2287 4.45182 41.2143 4.3129 41.2381 4.17588C41.2619 3.89994 41.3658 3.62626 41.512 3.40921C41.7531 3.07665 42.107 2.84752 42.5464 2.77919L42.452 2.2862C41.8898 2.37831 41.4225 2.68747 41.1108 3.12157C41.0069 3.26086 40.9264 3.41903 40.8698 3.57946C40.8037 3.41903 40.7799 3.23746 40.7799 3.07703C40.7799 2.66406 40.9264 2.26317 41.2287 1.95402L40.8698 1.60938C40.4678 2.01026 40.274 2.54817 40.274 3.07665C40.274 3.23708 40.2978 3.41865 40.345 3.57908Z" fill="#BEC230"/>
<path fill-rule="evenodd" clip-rule="evenodd" d="M25.7089 37.2382L55.2385 33.6638C55.248 27.0295 57.4486 14.5538 64.5606 11.7109C59.4321 18.2886 58.5065 26.6758 58.9171 35.4051L59.0116 37.3069L25.7089 37.2382ZM32.0842 61.0007C34.7477 61.0007 36.9011 58.8468 36.9011 56.1878C36.9011 53.5311 34.7477 51.3772 32.0842 51.3772C29.4348 51.3772 27.2813 53.5311 27.2813 56.1878C27.2817 58.8468 29.4351 61.0007 32.0842 61.0007ZM46.1665 56.1878C46.1665 58.8468 48.3249 61.0007 50.9834 61.0007C53.642 61.0007 55.8003 58.8468 55.8003 56.1878C55.8003 53.5311 53.642 51.3772 50.9834 51.3772C48.3249 51.3772 46.1665 53.5311 46.1665 56.1878ZM20.4908 49.7495C32.6608 45.2363 45.7559 44.4575 58.0486 48.1568C62.3932 49.4758 62.7004 42.5773 58.6674 42.5773L24.1509 42.6928C22.5215 42.7045 20.9397 41.7302 20.6658 40.1259L16.8591 18.4818C16.7409 17.8424 16.0986 17.4509 15.4613 17.4509H0C0 15.448 1.65285 13.7965 3.66008 13.7965H16.5146C18.144 13.7965 19.7258 14.7708 19.9997 16.3751L23.8204 38.0165C23.9337 38.6583 24.562 39.0474 25.2276 39.0474L58.6674 38.9225C68.6178 38.9225 65.6143 54.4465 58.1052 51.9951C52.8395 50.2779 42.7381 45.7055 20.4908 49.7495Z" fill="#3FA248"/>
<path fill-rule="evenodd" clip-rule="evenodd" d="M58.1653 23.3984C58.6236 23.3984 59.0815 23.4222 59.5303 23.4668C58.8314 27.2699 58.7275 31.3044 58.9209 35.4046L59.0154 37.3064L45.3675 37.2853C45.3437 36.9406 45.3203 36.5752 45.3203 36.2189C45.3203 35.761 45.3441 35.3012 45.4008 34.855L55.2423 33.6637C55.2518 30.9152 55.6296 27.1567 56.5835 23.4905C57.0981 23.4317 57.627 23.3984 58.1653 23.3984ZM50.4111 46.4509C52.9801 46.8401 55.5257 47.4018 58.052 48.1567C62.3967 49.4757 62.7038 42.5772 58.6708 42.5772L47.0298 42.6127C46.3876 41.5014 45.9059 40.2745 45.6176 38.9677L58.6705 38.9228C64.0352 38.9228 65.6313 43.4265 64.7907 47.2063C62.8545 48.3742 60.5972 49.0393 58.165 49.0393C55.2518 49.0389 52.5694 48.0763 50.4111 46.4509Z" fill="#63B36B"/>
<path d="M48.7654 5.91406H44.7891V14.7826H48.7654V5.91406Z" fill="url(#paint0_linear_2_1812)"/>
<path d="M48.7654 5.91406H44.7891V10.7036H48.7654V5.91406Z" fill="url(#paint1_linear_2_1812)"/>
<path d="M44.7214 4.22656H38.2656V14.2982H44.7214V4.22656Z" fill="url(#paint2_linear_2_1812)"/>
<path d="M44.6944 4.22656H38.6875V10.3112H44.6944V4.22656Z" fill="url(#paint3_linear_2_1812)"/>
<path fill-rule="evenodd" clip-rule="evenodd" d="M32.4223 6.622C31.0573 5.46577 28.8567 4.99656 27.1094 5.32686C28.6961 4.12609 30.1178 3.82637 31.355 4.44695C30.4812 3.6331 29.1638 3.09519 27.4305 2.86379C29.6595 2.4746 30.9772 2.52179 31.4023 3.01478C31.1 2.3825 30.505 1.69586 29.5888 0.940893C31.0339 0.70006 31.9973 1.19116 32.5028 2.42968C32.6962 1.11076 33.5319 0.412418 35.0242 0.320312C34.2875 1.26175 33.853 2.06164 33.7159 2.75054C34.0136 2.17715 35.2886 1.8208 37.546 1.69586C35.9071 2.33758 34.7503 3.13973 34.0842 4.12609C35.1515 3.25561 36.5966 3.20843 38.4194 4.03398C36.6532 4.10231 34.646 5.06489 33.6498 6.46157C33.4892 6.46157 33.3143 6.46157 33.1681 6.48535C32.9134 6.52046 32.663 6.56538 32.4223 6.622Z" fill="#283B49"/>
<path fill-rule="evenodd" clip-rule="evenodd" d="M29.3529 9.92465L31.648 13.006L33.1641 9.51206L31.5773 7.38155C30.6846 7.93078 29.929 8.81334 29.3529 9.92465ZM32.2101 7.06031L33.4852 8.77785L34.3307 6.81948C33.9858 6.76285 33.6223 6.76285 33.2634 6.7957C32.8996 6.83156 32.5407 6.9331 32.2101 7.06031ZM35.0198 6.98028L33.9665 9.41995L36.2333 12.4681L37.7494 8.93866C36.9703 7.98741 36.0164 7.30114 35.0198 6.98028ZM35.6858 12.8807L33.6458 10.1534L32.1297 13.6357L32.243 13.7961C32.6019 13.362 33.1263 13.0528 33.7353 13.0174L35.6858 12.8807ZM38.231 9.58L36.8332 12.8124C37.9099 12.8335 38.8027 13.6712 38.8733 14.7587L38.9538 15.8368C39.171 15.9051 39.3788 16.0183 39.582 16.1459L39.6293 16.1791C39.7664 15.8371 39.9409 15.528 40.1442 15.24C40.1348 15.0912 40.111 14.9425 40.1015 14.8059C39.8699 12.7652 39.1944 10.9673 38.231 9.58ZM31.8796 14.4733L31.8085 14.3695L30.4908 17.4294C30.5146 17.5309 30.5335 17.623 30.5569 17.7147C30.8119 17.1085 31.2796 16.6034 31.8652 16.2943L31.7991 15.2162C31.7757 14.9663 31.8085 14.7138 31.8796 14.4733ZM31.3363 13.7278L29.0457 10.6585C28.9513 10.8872 28.8708 11.1164 28.8047 11.3568C29.3196 12.9943 29.7919 14.6458 30.2025 16.3184L31.3363 13.7278Z" fill="#FFCC00"/>
<path fill-rule="evenodd" clip-rule="evenodd" d="M32.2098 7.06031L33.4848 8.77785L34.3303 6.81948C33.9854 6.76285 33.622 6.76285 33.263 6.7957C32.8992 6.83156 32.5403 6.9331 32.2098 7.06031ZM32.257 11.6207C31.7987 11.7577 31.3265 11.8494 30.8448 11.9298L29.3525 9.92464C29.9286 8.81334 30.6842 7.93116 31.5769 7.38117L33.1637 9.51168L32.257 11.6207ZM34.1694 10.8634C33.8388 11.0477 33.4844 11.1843 33.1255 11.3213L33.645 10.1534L34.1694 10.8634ZM37.3334 8.48078C36.6012 9.28292 35.7418 9.96956 34.7878 10.5309L33.9661 9.41957L35.0194 6.98028C35.846 7.24188 36.6345 7.77035 37.3334 8.48078ZM30.0658 12.0102L29.0457 10.6585C28.9513 10.8872 28.8708 11.1164 28.8047 11.3568C28.8708 11.5856 28.9418 11.8147 29.0125 12.0435C29.0786 12.0435 29.1258 12.0552 29.1919 12.0552C29.4942 12.0548 29.7681 12.0314 30.0658 12.0102Z" fill="#FFDA46"/>
<path fill-rule="evenodd" clip-rule="evenodd" d="M54.0874 6.62724C54.2574 6.58232 54.4418 6.55891 54.6023 6.55891C54.5362 5.65295 55.1407 4.81759 56.0474 4.61261C56.6896 4.47332 57.3319 4.68094 57.7664 5.10334C58.1585 4.82967 58.6164 4.63375 59.1219 4.52051C61.2092 4.03922 63.2965 5.36758 63.7548 7.45317C64.1893 9.37833 63.1125 11.2801 61.2991 11.9452C57.6202 16.8713 54.6734 23.8148 52.4493 32.7399C52.4349 32.7966 52.3783 32.8321 52.331 32.8203C52.2744 32.8203 52.2411 32.7732 52.2411 32.7165C52.1939 29.8643 52.3121 27.137 52.5294 24.5701L52.7704 24.1571C54.2582 23.8952 55.3821 22.6 55.3821 21.0191C55.3821 19.6885 54.5698 18.5443 53.3749 18.0631C53.1811 16.9401 52.4021 16.1141 51.5754 15.3807C50.4421 14.397 50.796 11.8301 52.4021 11.0725C52.1848 10.775 52.0099 10.4213 51.9298 10.0321C51.5894 8.49577 52.5528 6.9715 54.0874 6.62724Z" fill="#88BC3D"/>
<path fill-rule="evenodd" clip-rule="evenodd" d="M54.0888 6.62724C54.2588 6.58232 54.4432 6.55891 54.6037 6.55891C54.5376 5.65295 55.1421 4.81759 56.0488 4.61261C56.6911 4.47332 57.3333 4.68094 57.7678 5.10334C58.1599 4.82967 58.6178 4.63375 59.1233 4.52051C61.2106 4.03922 63.2979 5.36758 63.7562 7.45317C64.1907 9.37833 63.114 11.2801 61.3005 11.9452C59.8128 13.9387 58.4338 16.2746 57.1826 18.9335C54.8591 16.5954 53.4141 13.3868 53.4141 9.83621C53.4141 8.76039 53.5368 7.7057 53.7919 6.70764C53.8954 6.67442 53.9849 6.65064 54.0888 6.62724Z" fill="#9FC962"/>
<path fill-rule="evenodd" clip-rule="evenodd" d="M49.5409 3.32285C49.7109 3.25453 49.8858 3.20734 50.0464 3.17413C49.848 2.29157 50.3203 1.37391 51.1941 1.02965C51.7986 0.800893 52.4646 0.916403 52.9558 1.27048C53.3147 0.940184 53.7397 0.675946 54.2074 0.491735C56.2146 -0.287011 58.4625 0.708788 59.2321 2.70227C59.336 2.99029 59.4164 3.27567 59.4493 3.56331C59.2887 3.57275 59.1044 3.60823 58.9344 3.64371C58.5517 3.73355 58.1739 3.87247 57.8199 4.04498C57.2483 3.71241 56.5354 3.59653 55.8599 3.74526C54.8255 3.98609 54.037 4.78824 53.8054 5.77422C51.8549 6.2793 50.632 8.249 51.0759 10.2191C51.1231 10.4033 51.1703 10.5966 51.2508 10.7808C50.2969 11.5946 49.8386 12.8996 50.1125 14.183C50.1692 14.4144 50.2496 14.6526 50.3535 14.8719C50.0702 14.8036 49.7679 14.7798 49.4702 14.7798C49.2436 14.7798 49.012 14.8036 48.8091 14.8247C49.4279 12.8313 49.9519 10.335 49.5507 8.27316C49.3097 7.03464 48.7146 6.04828 47.7656 5.47752C47.9353 4.52627 48.5775 3.68863 49.5409 3.32285Z" fill="#88BC3D"/>
<path fill-rule="evenodd" clip-rule="evenodd" d="M57.3081 0.625C58.1581 1.0357 58.857 1.76915 59.2254 2.70832C59.3293 2.99634 59.4098 3.28172 59.4426 3.56936C59.2821 3.5788 59.0977 3.61428 58.9277 3.64976C58.545 3.73961 58.1672 3.87852 57.8132 4.05103C57.2416 3.71847 56.5287 3.60258 55.8532 3.75131C55.381 3.85511 54.9465 4.08387 54.6016 4.40473C55.268 2.98426 56.1985 1.70082 57.3081 0.625Z" fill="#9FC962"/>
<path fill-rule="evenodd" clip-rule="evenodd" d="M21.3548 0.0247801C19.357 0.50607 19.7491 8.96167 22.2143 18.8728C24.6794 28.7817 28.2922 36.4352 30.2851 35.9328C31.3051 35.6802 31.6973 33.3659 31.5129 29.8364C30.3652 29.8719 29.2556 29.8602 28.174 29.8126C29.3357 29.6311 30.4124 29.4469 31.4797 29.2415C31.3758 27.6372 31.1442 25.8042 30.8231 23.8318C29.3542 23.879 27.9707 23.879 26.6152 23.8107C28.0602 23.6031 29.3542 23.3505 30.7097 23.1006C30.3886 21.3121 29.9964 19.4108 29.5148 17.4501C28.0036 17.509 26.5585 17.509 25.1841 17.4407C26.648 17.2331 27.9703 16.9805 29.3353 16.7068C28.8631 14.8738 28.3576 13.1091 27.843 11.481C26.2608 11.5493 24.7685 11.5493 23.3473 11.481C24.8395 11.2639 26.1902 10.9997 27.588 10.726C26.993 8.93751 26.3885 7.33321 25.7791 5.91312C24.4379 5.96031 23.1534 5.94861 21.9018 5.88934C23.1629 5.70777 24.3341 5.48808 25.4909 5.27103C23.9332 1.80121 22.4081 -0.251537 21.3548 0.0247801Z" fill="#EFAC4F"/>
<path fill-rule="evenodd" clip-rule="evenodd" d="M21.3538 0.0247801C19.3655 0.50607 19.7482 8.86957 22.1756 18.7339C24.8628 17.9673 27.1296 16.2025 28.5652 13.8761C28.3242 13.0528 28.0835 12.2624 27.8425 11.4814C26.2603 11.5497 24.768 11.5497 23.3467 11.4814C24.839 11.2643 26.1896 11.0001 27.5875 10.7264C26.9924 8.93789 26.388 7.33359 25.7786 5.9135C24.4374 5.96069 23.1529 5.94899 21.9013 5.88972C23.1624 5.70815 24.3335 5.48846 25.4903 5.27141C23.9323 1.80121 22.4071 -0.251537 21.3538 0.0247801Z" fill="#F2BC71"/>
<path fill-rule="evenodd" clip-rule="evenodd" d="M38.0452 16.6296C38.4136 16.6413 38.7536 16.7429 39.0418 16.9388C37.1718 17.0758 35.684 18.6352 35.684 20.5577C35.684 22.1858 36.7845 23.5847 38.2719 24.0189L40.4775 27.8458L40.8413 33.3453C40.9123 34.3434 40.1563 35.2138 39.1457 35.2705L34.2246 35.6026C33.228 35.671 32.359 34.9043 32.2884 33.9062L31.3012 18.8847C31.2351 17.9455 31.934 17.0989 32.8596 16.9713L32.7463 15.1616C32.699 14.5554 33.1807 14.0054 33.8041 13.9703L36.7275 13.7766C37.3463 13.7294 37.8847 14.2107 37.9319 14.817L38.0452 16.6296Z" fill="#F94141"/>
<path fill-rule="evenodd" clip-rule="evenodd" d="M37.7788 17.2595C36.5509 17.8446 35.6914 19.0926 35.6914 20.5576C35.6914 21.0627 35.8048 21.544 35.9892 21.9803C34.9219 23.5612 33.4674 24.8326 31.7578 25.6914L31.309 18.885C31.2429 17.9458 31.9418 17.0991 32.8674 16.9715L32.7541 15.1619C32.7069 14.5556 33.1886 14.0057 33.8119 13.9705L36.7353 13.7769C37.1792 13.7414 37.5948 13.9822 37.8026 14.348C37.8592 14.8293 37.8925 15.2989 37.8925 15.7802C37.8921 16.2849 37.8449 16.7783 37.7788 17.2595Z" fill="#FB6565"/>
<path d="M51.913 21.3828H39.1953V34.215H51.913V21.3828Z" fill="url(#paint4_linear_2_1812)"/>
<path fill-rule="evenodd" clip-rule="evenodd" d="M50.0658 21.7019C50.3635 22.6079 51.2087 23.2613 52.1959 23.2613C53.4331 23.2613 54.4437 22.2516 54.4437 21.0153C54.4437 19.8923 53.5842 18.9535 52.4837 18.8142V18.7459C52.4837 17.0733 51.1282 15.7332 49.4659 15.7332C48.9181 15.7332 48.4126 15.8702 47.9781 16.1107C48.2286 16.7075 48.1153 17.8071 47.8032 18.1963C48.3321 15.9736 46.3959 14.1172 44.1481 14.1172C41.9803 14.1172 40.2235 15.8585 40.1906 18.0358C39.9167 17.932 39.6285 17.8754 39.3074 17.8754C37.8385 17.8754 36.6484 19.0788 36.6484 20.5555C36.6484 22.0232 37.8385 23.2145 39.3074 23.2145C40.5212 23.2145 41.5552 22.4124 41.8764 21.3128C42.5186 21.7706 43.298 22.0349 44.1481 22.0349C45.3381 22.0349 46.4148 21.5087 47.1281 20.6831C47.6903 21.3486 48.5259 21.7706 49.4659 21.7706C49.6741 21.7703 49.8819 21.7491 50.0658 21.7019Z" fill="#3FA248"/>
<path fill-rule="evenodd" clip-rule="evenodd" d="M47.8504 18.003C48.2188 15.8702 46.3249 14.1172 44.148 14.1172C41.9803 14.1172 40.2235 15.8585 40.1906 18.0358C39.9167 17.932 39.6285 17.8754 39.3074 17.8754C37.8385 17.8754 36.6484 19.0788 36.6484 20.5555C36.6484 21.1761 36.8517 21.7374 37.1962 22.1836C37.8056 22.2991 38.4146 22.344 39.0569 22.344C39.9024 22.344 40.7286 22.2519 41.508 22.0681C41.6686 21.8393 41.7963 21.5891 41.8764 21.3131C42.1174 21.4853 42.3819 21.634 42.6558 21.7495C44.7431 21.0274 46.5327 19.7085 47.8504 18.003ZM49.1916 15.7449C48.7571 15.7781 48.3416 15.9053 47.9778 16.1107C48.1621 16.5591 48.1383 17.302 48.0016 17.8071C48.4594 17.1654 48.8705 16.4787 49.1916 15.7449Z" fill="#63B36B"/>
<defs>
<linearGradient id="paint0_linear_2_1812" x1="50.7298" y1="21.0575" x2="44.6313" y2="4.50739" gradientUnits="userSpaceOnUse">
<stop stop-color="#FF2254"/>
<stop offset="0.25" stop-color="#FF3F47"/>
<stop offset="0.46" stop-color="#F25F41"/>
<stop offset="0.68" stop-color="#FF7D2C"/>
<stop offset="1" stop-color="#F2C822"/>
</linearGradient>
<linearGradient id="paint1_linear_2_1812" x1="51.393" y1="20.8146" x2="45.2939" y2="4.26303" gradientUnits="userSpaceOnUse">
<stop stop-color="#FF4C74"/>
<stop offset="0.25" stop-color="#FF636A"/>
<stop offset="0.46" stop-color="#F47D65"/>
<stop offset="0.68" stop-color="#FF9654"/>
<stop offset="1" stop-color="#F4D34C"/>
</linearGradient>
<linearGradient id="paint2_linear_2_1812" x1="48.0446" y1="18.6247" x2="37.9672" y2="4.19969" gradientUnits="userSpaceOnUse">
<stop stop-color="#FF2254"/>
<stop offset="0.25" stop-color="#FF3F47"/>
<stop offset="0.46" stop-color="#F25F41"/>
<stop offset="0.68" stop-color="#FF7D2C"/>
<stop offset="1" stop-color="#F2C822"/>
</linearGradient>
<linearGradient id="paint3_linear_2_1812" x1="49.1364" y1="17.909" x2="39.0303" y2="3.4429" gradientUnits="userSpaceOnUse">
<stop stop-color="#FF4C74"/>
<stop offset="0.25" stop-color="#FF636A"/>
<stop offset="0.46" stop-color="#F47D65"/>
<stop offset="0.68" stop-color="#FF9654"/>
<stop offset="1" stop-color="#F4D34C"/>
</linearGradient>
<linearGradient id="paint4_linear_2_1812" x1="47.5215" y1="31.1466" x2="40.0189" y2="18.3583" gradientUnits="userSpaceOnUse">
<stop stop-color="#9ED332"/>
<stop offset="0.4" stop-color="#99D431"/>
<stop offset="1" stop-color="#FAEA29"/>
</linearGradient>
</defs>
</svg>
